<svg width="24" height="24" viewBox="0 0 24 24" fill="none" xmlns="http://www.w3.org/2000/svg">
<g id="iconamoon:profile">
<g id="Group">
<path id="Vector" d="M2.99988 18.75C2.99988 17.5565 3.47398 16.4119 4.3179 15.568C5.16181 14.7241 6.3064 14.25 7.49988 14.25H16.4999C17.6934 14.25 18.8379 14.7241 19.6819 15.568C20.5258 16.4119 20.9999 17.5565 20.9999 18.75C20.9999 19.3467 20.7628 19.919 20.3409 20.341C19.9189 20.7629 19.3466 21 18.7499 21H5.24988C4.65314 21 4.08084 20.7629 3.65889 20.341C3.23693 19.919 2.99988 19.3467 2.99988 18.75Z" stroke="white" stroke-width="2" stroke-linejoin="round"/>
<path id="Vector_2" d="M11.9998 9.75C13.8637 9.75 15.3748 8.23896 15.3748 6.375C15.3748 4.51104 13.8637 3 11.9998 3C10.1358 3 8.62476 4.51104 8.62476 6.375C8.62476 8.23896 10.1358 9.75 11.9998 9.75Z" stroke="white" stroke-width="2"/>
</g>
</g>
</svg>
